<?xml version="1.0" encoding="us-ascii" standalone="no"?><svg xmlns="http://www.w3.org/2000/svg" xmlns:xlink="http://www.w3.org/1999/xlink" contentStyleType="text/css" height="606px" preserveAspectRatio="none" style="width:995px;height:606px;background:#FFFFFF;" version="1.1" viewBox="0 0 995 606" width="995.4px" zoomAndPan="magnify"><defs/><g><rect fill="#FFFFFF" height="489.4102" style="stroke:#181818;stroke-width:0.6;" width="6" x="10.5" y="56.1727"/><rect fill="#FFFFFF" height="18.7746" style="stroke:#181818;stroke-width:0.6;" width="6" x="297.9" y="70.1473"/><rect fill="#FFFFFF" height="443.2863" style="stroke:#181818;stroke-width:0.6;" width="6" x="297.9" y="107.6965"/><rect fill="#FFFFFF" height="203.7422" style="stroke:#181818;stroke-width:0.6;" width="6" x="521.1" y="152.6437"/><rect fill="#FFFFFF" height="56.3238" style="stroke:#181818;stroke-width:0.6;" width="6" x="521.1" y="421.7098"/><rect fill="#FFFFFF" height="166.193" style="stroke:#181818;stroke-width:0.6;" width="6" x="712.5" y="171.4184"/><rect fill="#FFFFFF" height="18.7746" style="stroke:#181818;stroke-width:0.6;" width="6" x="850.5" y="190.193"/><rect fill="#FFFFFF" height="18.7746" style="stroke:#181818;stroke-width:0.6;" width="6" x="850.5" y="227.7422"/><rect fill="#FFFFFF" height="18.7746" style="stroke:#181818;stroke-width:0.6;" width="6" x="960" y="440.4844"/><rect fill="none" height="63.9199" style="stroke:#000000;stroke-width:0.8999999999999999;" width="274.2" x="672" y="255.5168"/><rect fill="none" height="151.6477" style="stroke:#000000;stroke-width:0.8999999999999999;" width="742.8" x="249" y="365.3859"/><rect fill="none" height="101.673" style="stroke:#000000;stroke-width:0.8999999999999999;" width="730.8" x="255" y="396.1605"/><line style="stroke:#181818;stroke-width:0.3;stroke-dasharray:5.0,5.0;" x1="13.2" x2="13.2" y1="50.1727" y2="556.3828"/><line style="stroke:#181818;stroke-width:0.3;stroke-dasharray:5.0,5.0;" x1="300.6" x2="300.6" y1="50.1727" y2="556.3828"/><line style="stroke:#181818;stroke-width:0.3;stroke-dasharray:5.0,5.0;" x1="523.8" x2="523.8" y1="131.5828" y2="556.3828"/><line style="stroke:#181818;stroke-width:0.3;stroke-dasharray:5.0,5.0;" x1="715.2" x2="715.2" y1="50.1727" y2="556.3828"/><line style="stroke:#181818;stroke-width:0.3;stroke-dasharray:5.0,5.0;" x1="853.2" x2="853.2" y1="50.1727" y2="556.3828"/><line style="stroke:#181818;stroke-width:0.3;stroke-dasharray:5.0,5.0;" x1="919.8" x2="919.8" y1="291.7641" y2="556.3828"/><line style="stroke:#181818;stroke-width:0.3;stroke-dasharray:5.0,5.0;" x1="963" x2="963" y1="50.1727" y2="556.3828"/><text fill="#000000" font-family="sans-serif" font-size="8.4" lengthAdjust="spacing" textLength="17.4" x="3" y="48.0645">User</text><ellipse cx="13.5" cy="8.1" fill="#E3E3E3" rx="4.8" ry="4.8" style="stroke:#181818;stroke-width:0.3;"/><path d="M13.5,12.9 L13.5,29.1 M5.7,17.7 L21.3,17.7 M13.5,29.1 L5.7,38.1 M13.5,29.1 L21.3,38.1 " fill="none" style="stroke:#181818;stroke-width:0.3;"/><text fill="#000000" font-family="sans-serif" font-size="8.4" lengthAdjust="spacing" textLength="17.4" x="3" y="564.8473">User</text><ellipse cx="13.5" cy="572.0555" fill="#E3E3E3" rx="4.8" ry="4.8" style="stroke:#181818;stroke-width:0.3;"/><path d="M13.5,576.8555 L13.5,593.0555 M5.7,581.6555 L21.3,581.6555 M13.5,593.0555 L5.7,602.0555 M13.5,593.0555 L21.3,602.0555 " fill="none" style="stroke:#181818;stroke-width:0.3;"/><rect fill="#E3E3E3" height="19.5727" rx="1.5" ry="1.5" style="stroke:#181818;stroke-width:0.3;" width="79.8" x="261" y="30"/><text fill="#000000" font-family="sans-serif" font-size="8.4" lengthAdjust="spacing" textLength="71.4" x="265.2" y="43.2645">:ImportarFicherioUI</text><rect fill="#E3E3E3" height="19.5727" rx="1.5" ry="1.5" style="stroke:#181818;stroke-width:0.3;" width="79.8" x="261" y="555.7828"/><text fill="#000000" font-family="sans-serif" font-size="8.4" lengthAdjust="spacing" textLength="71.4" x="265.2" y="569.0473">:ImportarFicherioUI</text><rect fill="#E3E3E3" height="19.5727" rx="1.5" ry="1.5" style="stroke:#181818;stroke-width:0.3;" width="109.8" x="469.2" y="555.7828"/><text fill="#000000" font-family="sans-serif" font-size="8.4" lengthAdjust="spacing" textLength="101.4" x="473.4" y="569.0473">:ImportarFicherioController</text><rect fill="#E3E3E3" height="30.7453" rx="1.5" ry="1.5" style="stroke:#181818;stroke-width:0.3;" width="75" x="678" y="18.8273"/><text fill="#000000" font-family="sans-serif" font-size="8.4" lengthAdjust="spacing" textLength="61.8" x="684.6" y="32.0918">importarFicheiro</text><text fill="#000000" font-family="sans-serif" font-size="8.4" lengthAdjust="spacing" textLength="66.6" x="682.2" y="43.2645">: ImportarFicheiro</text><rect fill="#E3E3E3" height="30.7453" rx="1.5" ry="1.5" style="stroke:#181818;stroke-width:0.3;" width="75" x="678" y="555.7828"/><text fill="#000000" font-family="sans-serif" font-size="8.4" lengthAdjust="spacing" textLength="61.8" x="684.6" y="569.0473">importarFicheiro</text><text fill="#000000" font-family="sans-serif" font-size="8.4" lengthAdjust="spacing" textLength="66.6" x="682.2" y="580.2199">: ImportarFicheiro</text><rect fill="#E3E3E3" height="30.7453" rx="1.5" ry="1.5" style="stroke:#181818;stroke-width:0.3;" width="79.8" x="813.6" y="18.8273"/><text fill="#000000" font-family="sans-serif" font-size="8.4" lengthAdjust="spacing" textLength="66" x="820.5" y="32.0918">excessaoFicheiro</text><text fill="#000000" font-family="sans-serif" font-size="8.4" lengthAdjust="spacing" textLength="71.4" x="817.8" y="43.2645">: ExcessaoFicheiro</text><rect fill="#E3E3E3" height="30.7453" rx="1.5" ry="1.5" style="stroke:#181818;stroke-width:0.3;" width="79.8" x="813.6" y="555.7828"/><text fill="#000000" font-family="sans-serif" font-size="8.4" lengthAdjust="spacing" textLength="66" x="820.5" y="569.0473">excessaoFicheiro</text><text fill="#000000" font-family="sans-serif" font-size="8.4" lengthAdjust="spacing" textLength="71.4" x="817.8" y="580.2199">: ExcessaoFicheiro</text><rect fill="#E3E3E3" height="30.7453" rx="1.5" ry="1.5" style="stroke:#181818;stroke-width:0.3;" width="40.8" x="899.4" y="555.7828"/><text fill="#000000" font-family="sans-serif" font-size="8.4" lengthAdjust="spacing" textLength="27" x="906.3" y="569.0473">horario</text><text fill="#000000" font-family="sans-serif" font-size="8.4" lengthAdjust="spacing" textLength="32.4" x="903.6" y="580.2199">: Horario</text><rect fill="#E3E3E3" height="30.7453" rx="1.5" ry="1.5" style="stroke:#181818;stroke-width:0.3;" width="33.6" x="946.2" y="18.8273"/><text fill="#000000" font-family="sans-serif" font-size="8.4" lengthAdjust="spacing" textLength="17.4" x="954.3" y="32.0918">local</text><text fill="#000000" font-family="sans-serif" font-size="8.4" lengthAdjust="spacing" textLength="25.2" x="950.4" y="43.2645">: Local</text><rect fill="#E3E3E3" height="30.7453" rx="1.5" ry="1.5" style="stroke:#181818;stroke-width:0.3;" width="33.6" x="946.2" y="555.7828"/><text fill="#000000" font-family="sans-serif" font-size="8.4" lengthAdjust="spacing" textLength="17.4" x="954.3" y="569.0473">local</text><text fill="#000000" font-family="sans-serif" font-size="8.4" lengthAdjust="spacing" textLength="25.2" x="950.4" y="580.2199">: Local</text><rect fill="#FFFFFF" height="489.4102" style="stroke:#181818;stroke-width:0.6;" width="6" x="10.5" y="56.1727"/><rect fill="#FFFFFF" height="18.7746" style="stroke:#181818;stroke-width:0.6;" width="6" x="297.9" y="70.1473"/><rect fill="#FFFFFF" height="443.2863" style="stroke:#181818;stroke-width:0.6;" width="6" x="297.9" y="107.6965"/><rect fill="#FFFFFF" height="203.7422" style="stroke:#181818;stroke-width:0.6;" width="6" x="521.1" y="152.6437"/><rect fill="#FFFFFF" height="56.3238" style="stroke:#181818;stroke-width:0.6;" width="6" x="521.1" y="421.7098"/><rect fill="#FFFFFF" height="166.193" style="stroke:#181818;stroke-width:0.6;" width="6" x="712.5" y="171.4184"/><rect fill="#FFFFFF" height="18.7746" style="stroke:#181818;stroke-width:0.6;" width="6" x="850.5" y="190.193"/><rect fill="#FFFFFF" height="18.7746" style="stroke:#181818;stroke-width:0.6;" width="6" x="850.5" y="227.7422"/><rect fill="#FFFFFF" height="18.7746" style="stroke:#181818;stroke-width:0.6;" width="6" x="960" y="440.4844"/><polygon fill="#181818" points="290.7,67.7473,296.7,70.1473,290.7,72.5473,293.1,70.1473" style="stroke:#181818;stroke-width:0.6;"/><line style="stroke:#181818;stroke-width:0.6;" x1="16.5" x2="294.3" y1="70.1473" y2="70.1473"/><text fill="#000000" font-family="sans-serif" font-size="7.8" font-weight="bold" lengthAdjust="spacing" textLength="4.2" x="20.7" y="66.9896">1</text><text fill="#000000" font-family="sans-serif" font-size="7.8" lengthAdjust="spacing" textLength="127.8" x="27.3" y="66.9896">pede para importar os novos horarios</text><polygon fill="#181818" points="23.1,86.5219,17.1,88.9219,23.1,91.3219,20.7,88.9219" style="stroke:#181818;stroke-width:0.6;"/><line style="stroke:#181818;stroke-width:0.6;" x1="19.5" x2="300.3" y1="88.9219" y2="88.9219"/><text fill="#000000" font-family="sans-serif" font-size="7.8" font-weight="bold" lengthAdjust="spacing" textLength="4.2" x="26.7" y="85.7643">2</text><text fill="#000000" font-family="sans-serif" font-size="7.8" lengthAdjust="spacing" textLength="168.6" x="33.3" y="85.7643">pede o filepath do ficheiro com os novos horarios</text><polygon fill="#181818" points="290.7,105.2965,296.7,107.6965,290.7,110.0965,293.1,107.6965" style="stroke:#181818;stroke-width:0.6;"/><line style="stroke:#181818;stroke-width:0.6;" x1="16.5" x2="294.3" y1="107.6965" y2="107.6965"/><text fill="#000000" font-family="sans-serif" font-size="7.8" font-weight="bold" lengthAdjust="spacing" textLength="4.2" x="20.7" y="104.5389">3</text><text fill="#000000" font-family="sans-serif" font-size="7.8" lengthAdjust="spacing" textLength="58.8" x="27.3" y="104.5389">fornece o filepath</text><polygon fill="#181818" points="462,124.0711,468,126.4711,462,128.8711,464.4,126.4711" style="stroke:#181818;stroke-width:0.6;"/><line style="stroke:#181818;stroke-width:0.6;" x1="303.9" x2="465.6" y1="126.4711" y2="126.4711"/><text fill="#000000" font-family="sans-serif" font-size="7.8" font-weight="bold" lengthAdjust="spacing" textLength="4.2" x="308.1" y="123.3135">4</text><text fill="#000000" font-family="sans-serif" font-size="7.8" lengthAdjust="spacing" textLength="21.6" x="314.7" y="123.3135">create</text><rect fill="#E3E3E3" height="19.5727" rx="1.5" ry="1.5" style="stroke:#181818;stroke-width:0.3;" width="109.8" x="469.2" y="112.4965"/><text fill="#000000" font-family="sans-serif" font-size="8.4" lengthAdjust="spacing" textLength="101.4" x="473.4" y="125.7609">:ImportarFicherioController</text><polygon fill="#181818" points="513.9,150.2438,519.9,152.6437,513.9,155.0438,516.3,152.6437" style="stroke:#181818;stroke-width:0.6;"/><line style="stroke:#181818;stroke-width:0.6;" x1="303.9" x2="517.5" y1="152.6437" y2="152.6437"/><text fill="#000000" font-family="sans-serif" font-size="7.8" font-weight="bold" lengthAdjust="spacing" textLength="4.2" x="308.1" y="149.4861">5</text><text fill="#000000" font-family="sans-serif" font-size="7.8" lengthAdjust="spacing" textLength="199.2" x="314.7" y="149.4861">importarFicheiroHorarios(horariosFilePath, novosHorarios)</text><polygon fill="#181818" points="705.3,169.0184,711.3,171.4184,705.3,173.8184,707.7,171.4184" style="stroke:#181818;stroke-width:0.6;"/><line style="stroke:#181818;stroke-width:0.6;" x1="527.1" x2="708.9" y1="171.4184" y2="171.4184"/><text fill="#000000" font-family="sans-serif" font-size="7.8" font-weight="bold" lengthAdjust="spacing" textLength="4.2" x="531.3" y="168.2607">6</text><text fill="#000000" font-family="sans-serif" font-size="7.8" lengthAdjust="spacing" textLength="167.4" x="537.9" y="168.2607">importarFicheiroHorarios(ficheiro, novosHorarios)</text><polygon fill="#181818" points="843.3,187.793,849.3,190.193,843.3,192.593,845.7,190.193" style="stroke:#181818;stroke-width:0.6;"/><line style="stroke:#181818;stroke-width:0.6;" x1="718.5" x2="846.9" y1="190.193" y2="190.193"/><text fill="#000000" font-family="sans-serif" font-size="7.8" font-weight="bold" lengthAdjust="spacing" textLength="4.2" x="722.7" y="187.0354">7</text><text fill="#000000" font-family="sans-serif" font-size="7.8" lengthAdjust="spacing" textLength="114" x="729.3" y="187.0354">verificarFicheiro(ficheiro, fileType)</text><polygon fill="#181818" points="725.1,206.5676,719.1,208.9676,725.1,211.3676,722.7,208.9676" style="stroke:#181818;stroke-width:0.6;"/><line style="stroke:#181818;stroke-width:0.6;" x1="721.5" x2="852.9" y1="208.9676" y2="208.9676"/><text fill="#000000" font-family="sans-serif" font-size="7.8" font-weight="bold" lengthAdjust="spacing" textLength="4.2" x="728.7" y="205.81">8</text><text fill="#000000" font-family="sans-serif" font-size="7.8" lengthAdjust="spacing" textLength="2.4" x="735.3" y="205.81">&#160;</text><polygon fill="#181818" points="843.3,225.3422,849.3,227.7422,843.3,230.1422,845.7,227.7422" style="stroke:#181818;stroke-width:0.6;"/><line style="stroke:#181818;stroke-width:0.6;" x1="718.5" x2="846.9" y1="227.7422" y2="227.7422"/><text fill="#000000" font-family="sans-serif" font-size="7.8" font-weight="bold" lengthAdjust="spacing" textLength="4.2" x="722.7" y="224.5846">9</text><text fill="#000000" font-family="sans-serif" font-size="7.8" lengthAdjust="spacing" textLength="111.6" x="729.3" y="224.5846">verificarFicheiroHorarios(ficheiro)</text><polygon fill="#181818" points="725.1,244.1168,719.1,246.5168,725.1,248.9168,722.7,246.5168" style="stroke:#181818;stroke-width:0.6;"/><line style="stroke:#181818;stroke-width:0.6;" x1="721.5" x2="852.9" y1="246.5168" y2="246.5168"/><text fill="#000000" font-family="sans-serif" font-size="7.8" font-weight="bold" lengthAdjust="spacing" textLength="8.4" x="728.7" y="243.3592">10</text><text fill="#000000" font-family="sans-serif" font-size="7.8" lengthAdjust="spacing" textLength="2.4" x="739.5" y="243.3592">&#160;</text><path d="M672,255.5168 L715.8,255.5168 L715.8,261.0914 L709.8,267.0914 L672,267.0914 L672,255.5168 " fill="#EEEEEE" style="stroke:#000000;stroke-width:0.8999999999999999;"/><rect fill="none" height="63.9199" style="stroke:#000000;stroke-width:0.8999999999999999;" width="274.2" x="672" y="255.5168"/><text fill="#000000" font-family="sans-serif" font-size="7.8" font-weight="bold" lengthAdjust="spacing" textLength="16.8" x="681" y="264.5338">loop</text><text fill="#000000" font-family="sans-serif" font-size="6.6" font-weight="bold" lengthAdjust="spacing" textLength="108" x="724.8" y="263.8389">[para todas as linhas do ficherio]</text><polygon fill="#181818" points="892.2,278.666,898.2,281.066,892.2,283.466,894.6,281.066" style="stroke:#181818;stroke-width:0.6;"/><line style="stroke:#181818;stroke-width:0.6;" x1="718.5" x2="895.8" y1="281.066" y2="281.066"/><text fill="#000000" font-family="sans-serif" font-size="7.8" font-weight="bold" lengthAdjust="spacing" textLength="8.4" x="722.7" y="277.9084">11</text><text fill="#000000" font-family="sans-serif" font-size="7.8" lengthAdjust="spacing" textLength="21.6" x="733.5" y="277.9084">create</text><rect fill="#E3E3E3" height="30.7453" rx="1.5" ry="1.5" style="stroke:#181818;stroke-width:0.3;" width="40.8" x="899.4" y="267.0914"/><text fill="#000000" font-family="sans-serif" font-size="8.4" lengthAdjust="spacing" textLength="27" x="906.3" y="280.3559">horario</text><text fill="#000000" font-family="sans-serif" font-size="8.4" lengthAdjust="spacing" textLength="32.4" x="903.6" y="291.5285">: Horario</text><polygon fill="#181818" points="533.7,335.2113,527.7,337.6113,533.7,340.0113,531.3,337.6113" style="stroke:#181818;stroke-width:0.6;"/><line style="stroke:#181818;stroke-width:0.6;" x1="530.1" x2="714.9" y1="337.6113" y2="337.6113"/><text fill="#000000" font-family="sans-serif" font-size="7.8" font-weight="bold" lengthAdjust="spacing" textLength="8.4" x="537.3" y="334.4537">12</text><text fill="#000000" font-family="sans-serif" font-size="7.8" lengthAdjust="spacing" textLength="19.2" x="548.1" y="334.4537">result</text><polygon fill="#181818" points="310.5,353.9859,304.5,356.3859,310.5,358.7859,308.1,356.3859" style="stroke:#181818;stroke-width:0.6;"/><line style="stroke:#181818;stroke-width:0.6;" x1="306.9" x2="523.5" y1="356.3859" y2="356.3859"/><text fill="#000000" font-family="sans-serif" font-size="7.8" font-weight="bold" lengthAdjust="spacing" textLength="8.4" x="314.1" y="353.2283">13</text><text fill="#000000" font-family="sans-serif" font-size="7.8" lengthAdjust="spacing" textLength="19.2" x="324.9" y="353.2283">result</text><path d="M249,365.3859 L292.8,365.3859 L292.8,370.9605 L286.8,376.9605 L249,376.9605 L249,365.3859 " fill="#EEEEEE" style="stroke:#000000;stroke-width:0.8999999999999999;"/><rect fill="none" height="151.6477" style="stroke:#000000;stroke-width:0.8999999999999999;" width="742.8" x="249" y="365.3859"/><text fill="#000000" font-family="sans-serif" font-size="7.8" font-weight="bold" lengthAdjust="spacing" textLength="16.8" x="258" y="374.4029">loop</text><text fill="#000000" font-family="sans-serif" font-size="6.6" font-weight="bold" lengthAdjust="spacing" textLength="90" x="301.8" y="373.708">[todos os Hubs do ficheiro]</text><path d="M255,396.1605 L291.6,396.1605 L291.6,401.7352 L285.6,407.7352 L255,407.7352 L255,396.1605 " fill="#EEEEEE" style="stroke:#000000;stroke-width:0.8999999999999999;"/><rect fill="none" height="101.673" style="stroke:#000000;stroke-width:0.8999999999999999;" width="730.8" x="255" y="396.1605"/><text fill="#000000" font-family="sans-serif" font-size="7.8" font-weight="bold" lengthAdjust="spacing" textLength="9.6" x="264" y="405.1775">alt</text><text fill="#000000" font-family="sans-serif" font-size="6.6" font-weight="bold" lengthAdjust="spacing" textLength="101.4" x="300.6" y="404.4826">[localidade &#233; hub &amp; hub existe]</text><polygon fill="#181818" points="513.9,419.3098,519.9,421.7098,513.9,424.1098,516.3,421.7098" style="stroke:#181818;stroke-width:0.6;"/><line style="stroke:#181818;stroke-width:0.6;" x1="303.9" x2="517.5" y1="421.7098" y2="421.7098"/><text fill="#000000" font-family="sans-serif" font-size="7.8" font-weight="bold" lengthAdjust="spacing" textLength="8.4" x="308.1" y="418.5521">14</text><text fill="#000000" font-family="sans-serif" font-size="7.8" lengthAdjust="spacing" textLength="80.4" x="318.9" y="418.5521">setHorario(novoHorario)</text><polygon fill="#181818" points="952.8,438.0844,958.8,440.4844,952.8,442.8844,955.2,440.4844" style="stroke:#181818;stroke-width:0.6;"/><line style="stroke:#181818;stroke-width:0.6;" x1="527.1" x2="956.4" y1="440.4844" y2="440.4844"/><text fill="#000000" font-family="sans-serif" font-size="7.8" font-weight="bold" lengthAdjust="spacing" textLength="8.4" x="531.3" y="437.3268">15</text><text fill="#000000" font-family="sans-serif" font-size="7.8" lengthAdjust="spacing" textLength="80.4" x="542.1" y="437.3268">setHorario(novoHorario)</text><polygon fill="#181818" points="533.7,456.859,527.7,459.259,533.7,461.659,531.3,459.259" style="stroke:#181818;stroke-width:0.6;"/><line style="stroke:#181818;stroke-width:0.6;" x1="530.1" x2="962.4" y1="459.259" y2="459.259"/><text fill="#000000" font-family="sans-serif" font-size="7.8" font-weight="bold" lengthAdjust="spacing" textLength="8.4" x="537.3" y="456.1014">16</text><text fill="#000000" font-family="sans-serif" font-size="7.8" lengthAdjust="spacing" textLength="2.4" x="548.1" y="456.1014">&#160;</text><polygon fill="#181818" points="310.5,475.6336,304.5,478.0336,310.5,480.4336,308.1,478.0336" style="stroke:#181818;stroke-width:0.6;"/><line style="stroke:#181818;stroke-width:0.6;" x1="306.9" x2="523.5" y1="478.0336" y2="478.0336"/><text fill="#000000" font-family="sans-serif" font-size="7.8" font-weight="bold" lengthAdjust="spacing" textLength="8.4" x="314.1" y="474.876">17</text><text fill="#000000" font-family="sans-serif" font-size="7.8" lengthAdjust="spacing" textLength="2.4" x="324.9" y="474.876">&#160;</text><polygon fill="#181818" points="20.1,543.1828,14.1,545.5828,20.1,547.9828,17.7,545.5828" style="stroke:#181818;stroke-width:0.6;"/><line style="stroke:#181818;stroke-width:0.6;" x1="16.5" x2="297.3" y1="545.5828" y2="545.5828"/><text fill="#000000" font-family="sans-serif" font-size="7.8" font-weight="bold" lengthAdjust="spacing" textLength="8.4" x="23.7" y="537.2379">18</text><text fill="#000000" font-family="sans-serif" font-size="7.8" lengthAdjust="spacing" textLength="253.8" x="34.5" y="532.0506">mostra em quais os hubs ocorreu mudan&#231;a de hor&#225;rio e d&#225; erro naqueles</text><text fill="#000000" font-family="sans-serif" font-size="7.8" lengthAdjust="spacing" textLength="103.2" x="36.9" y="542.4252">em que n&#227;o ocorreu mudan&#231;a</text><!--SRC=[jLNDJjmm4BxxAKPxQ06rBy2XbnM8I5k1A4WzSF4ciyJ2yGJReOkqBuDwgFeS-s8TEmbniiiY8TMA4ikUxvk_puvxKAQMLbPGaQ6yj5GXUDkWSAyxjSmVv3t-yCyQmMBkfRdNgO4hPK6_bBc7bTGEXP2D9zDKIxH2V2vLWR0YyajQ2vbxiZ2xTMXd81s4YM0Mht9LI-DXTffLDLalxRdAIxIARhFMCdl7Rax6MzAwOvxVN2_629K2bAKxSmhPP2r2i-zNbzTZBAvpT4vIYZsRh4NisS_vsHXQafKSNa1SjDDeU35reIcNEbWjmYJQB2xd8WokcdgI7jjo2U0HPl3r6vS5Jg56Bd7e1VGv0ZamzCJlphsBg84ewsYoI1B8EXg2bT9OIrz24UPjRf1JzGPdWRkiQN0hiWRpbFXGAA5j9oSCootoxdIBDwPjx8hgZlgepjdD5RlvqaRRxn-FtKPznAKm8ZVxYAq_vAGlo5xoaODMHQ_h7JNx219X5qyiMcORV2JSeL8tppKEj0DlLDYm7jdwo8Vbf2iJmBjnxEJwFwBGH7KhMKy5IvqVhKp9drvr749YFmsUZy-EJCPZizaCgsYAw78mV6NgP6NHDTgBFP5F6jbB9OhxRTHONp5TpfGF3pyNpTAbfqliZJcKMtk8zu8g99_DxLyecoLyYczSAyUPJzCUdHM7lklcKP1hDp_U0RqHzJHbley-GXgliUbkuEe2tTbBohWNExJW4BJDHHpKHISDcVHmQZD8HunhtDsQ5JdFCiOA7XkfOd_Bq5_AoLfie6eAQRP_98SMBixj2nSB48hj2w3bczN8nmOrEhWpBGc2sVwc7Npu4QHtRVWL_0C0]--></g></svg>